<svg xmlns="http://www.w3.org/2000/svg" width="945" height="116" fill="none" viewBox="0 0 945 116"><mask id="path-1-outside-1" width="944" height="116" x=".883" y=".219" fill="#000" maskUnits="userSpaceOnUse"><rect width="944" height="116" x=".883" y=".219" fill="#fff"/><path d="M5.88281 109V6.625H34.7812C43.6875 6.625 51.5625 8.59375 58.4062 12.5312C65.25 16.4688 70.5234 22.0703 74.2266 29.3359C77.9766 36.6016 79.875 44.9453 79.9219 54.3672V60.9062C79.9219 70.5625 78.0469 79.0234 74.2969 86.2891C70.5938 93.5547 65.2734 99.1328 58.3359 103.023C51.4453 106.914 43.4062 108.906 34.2188 109H5.88281ZM19.3828 17.7344V97.9609H33.5859C43.9922 97.9609 52.0781 94.7266 57.8438 88.2578C63.6562 81.7891 66.5625 72.5781 66.5625 60.625V54.6484C66.5625 43.0234 63.8203 34 58.3359 27.5781C52.8984 21.1094 45.1641 17.8281 35.1328 17.7344H19.3828Z"/><path d="M155.367 82.2812H112.477L102.844 109H88.9219L128.016 6.625H139.828L178.992 109H165.141L155.367 82.2812ZM116.555 71.1719H151.359L133.922 23.2891L116.555 71.1719Z"/><path d="M271.453 109H257.883L206.344 30.1094V109H192.773V6.625H206.344L258.023 85.8672V6.625H271.453V109Z"/><path d="M329.32 91.0703L358.57 6.625H373.336L335.367 109H323.414L285.516 6.625H300.211L329.32 91.0703Z"/><path d="M417.281 63.3672C405.703 60.0391 397.266 55.9609 391.969 51.1328C386.719 46.2578 384.094 40.2578 384.094 33.1328C384.094 25.0703 387.305 18.4141 393.727 13.1641C400.195 7.86719 408.586 5.21875 418.898 5.21875C425.93 5.21875 432.188 6.57812 437.672 9.29688C443.203 12.0156 447.469 15.7656 450.469 20.5469C453.516 25.3281 455.039 30.5547 455.039 36.2266H441.469C441.469 30.0391 439.5 25.1875 435.562 21.6719C431.625 18.1094 426.07 16.3281 418.898 16.3281C412.242 16.3281 407.039 17.8047 403.289 20.7578C399.586 23.6641 397.734 27.7188 397.734 32.9219C397.734 37.0938 399.492 40.6328 403.008 43.5391C406.57 46.3984 412.594 49.0234 421.078 51.4141C429.609 53.8047 436.266 56.4531 441.047 59.3594C445.875 62.2188 449.438 65.5703 451.734 69.4141C454.078 73.2578 455.25 77.7812 455.25 82.9844C455.25 91.2812 452.016 97.9375 445.547 102.953C439.078 107.922 430.43 110.406 419.602 110.406C412.57 110.406 406.008 109.07 399.914 106.398C393.82 103.68 389.109 99.9766 385.781 95.2891C382.5 90.6016 380.859 85.2812 380.859 79.3281H394.43C394.43 85.5156 396.703 90.4141 401.25 94.0234C405.844 97.5859 411.961 99.3672 419.602 99.3672C426.727 99.3672 432.188 97.9141 435.984 95.0078C439.781 92.1016 441.68 88.1406 441.68 83.125C441.68 78.1094 439.922 74.2422 436.406 71.5234C432.891 68.7578 426.516 66.0391 417.281 63.3672Z"/><path d="M494.695 76.7266L496.664 90.2266L499.547 78.0625L519.797 6.625H531.188L550.945 78.0625L553.758 90.4375L555.938 76.6562L571.828 6.625H585.398L560.578 109H548.273L527.18 34.3984L525.562 26.5938L523.945 34.3984L502.078 109H489.773L465.023 6.625H478.523L494.695 76.7266Z"/><path d="M679.195 61.1172C679.195 71.1484 677.508 79.9141 674.133 87.4141C670.758 94.8672 665.977 100.562 659.789 104.5C653.602 108.438 646.383 110.406 638.133 110.406C630.07 110.406 622.922 108.438 616.688 104.5C610.453 100.516 605.602 94.8672 602.133 87.5547C598.711 80.1953 596.953 71.6875 596.859 62.0312V54.6484C596.859 44.8047 598.57 36.1094 601.992 28.5625C605.414 21.0156 610.242 15.25 616.477 11.2656C622.758 7.23438 629.93 5.21875 637.992 5.21875C646.195 5.21875 653.414 7.21094 659.648 11.1953C665.93 15.1328 670.758 20.875 674.133 28.4219C677.508 35.9219 679.195 44.6641 679.195 54.6484V61.1172ZM665.766 54.5078C665.766 42.3672 663.328 33.0625 658.453 26.5938C653.578 20.0781 646.758 16.8203 637.992 16.8203C629.461 16.8203 622.734 20.0781 617.812 26.5938C612.938 33.0625 610.43 42.0625 610.289 53.5938V61.1172C610.289 72.8828 612.75 82.1406 617.672 88.8906C622.641 95.5938 629.461 98.9453 638.133 98.9453C646.852 98.9453 653.602 95.7812 658.383 89.4531C663.164 83.0781 665.625 73.9609 665.766 62.1016V54.5078Z"/><path d="M736.992 67.5859H712.945V109H699.375V6.625H733.266C744.797 6.625 753.656 9.25 759.844 14.5C766.078 19.75 769.195 27.3906 769.195 37.4219C769.195 43.7969 767.461 49.3516 763.992 54.0859C760.57 58.8203 755.789 62.3594 749.648 64.7031L773.695 108.156V109H759.211L736.992 67.5859ZM712.945 56.5469H733.688C740.391 56.5469 745.711 54.8125 749.648 51.3438C753.633 47.875 755.625 43.2344 755.625 37.4219C755.625 31.0938 753.727 26.2422 749.93 22.8672C746.18 19.4922 740.742 17.7812 733.617 17.7344H712.945V56.5469Z"/><path d="M801.75 97.9609H850.266V109H788.18V6.625H801.75V97.9609Z"/><path d="M865.664 109V6.625H894.562C903.469 6.625 911.344 8.59375 918.188 12.5312C925.031 16.4688 930.305 22.0703 934.008 29.3359C937.758 36.6016 939.656 44.9453 939.703 54.3672V60.9062C939.703 70.5625 937.828 79.0234 934.078 86.2891C930.375 93.5547 925.055 99.1328 918.117 103.023C911.227 106.914 903.188 108.906 894 109H865.664ZM879.164 17.7344V97.9609H893.367C903.773 97.9609 911.859 94.7266 917.625 88.2578C923.438 81.7891 926.344 72.5781 926.344 60.625V54.6484C926.344 43.0234 923.602 34 918.117 27.5781C912.68 21.1094 904.945 17.8281 894.914 17.7344H879.164Z"/></mask><path stroke="#fff" stroke-width="10" d="M5.88281 109V6.625H34.7812C43.6875 6.625 51.5625 8.59375 58.4062 12.5312C65.25 16.4688 70.5234 22.0703 74.2266 29.3359C77.9766 36.6016 79.875 44.9453 79.9219 54.3672V60.9062C79.9219 70.5625 78.0469 79.0234 74.2969 86.2891C70.5938 93.5547 65.2734 99.1328 58.3359 103.023C51.4453 106.914 43.4062 108.906 34.2188 109H5.88281ZM19.3828 17.7344V97.9609H33.5859C43.9922 97.9609 52.0781 94.7266 57.8438 88.2578C63.6562 81.7891 66.5625 72.5781 66.5625 60.625V54.6484C66.5625 43.0234 63.8203 34 58.3359 27.5781C52.8984 21.1094 45.1641 17.8281 35.1328 17.7344H19.3828Z" mask="url(#path-1-outside-1)"/><path stroke="#fff" stroke-width="10" d="M155.367 82.2812H112.477L102.844 109H88.9219L128.016 6.625H139.828L178.992 109H165.141L155.367 82.2812ZM116.555 71.1719H151.359L133.922 23.2891L116.555 71.1719Z" mask="url(#path-1-outside-1)"/><path stroke="#fff" stroke-width="10" d="M271.453 109H257.883L206.344 30.1094V109H192.773V6.625H206.344L258.023 85.8672V6.625H271.453V109Z" mask="url(#path-1-outside-1)"/><path stroke="#fff" stroke-width="10" d="M329.32 91.0703L358.57 6.625H373.336L335.367 109H323.414L285.516 6.625H300.211L329.32 91.0703Z" mask="url(#path-1-outside-1)"/><path stroke="#fff" stroke-width="10" d="M417.281 63.3672C405.703 60.0391 397.266 55.9609 391.969 51.1328C386.719 46.2578 384.094 40.2578 384.094 33.1328C384.094 25.0703 387.305 18.4141 393.727 13.1641C400.195 7.86719 408.586 5.21875 418.898 5.21875C425.93 5.21875 432.188 6.57812 437.672 9.29688C443.203 12.0156 447.469 15.7656 450.469 20.5469C453.516 25.3281 455.039 30.5547 455.039 36.2266H441.469C441.469 30.0391 439.5 25.1875 435.562 21.6719C431.625 18.1094 426.07 16.3281 418.898 16.3281C412.242 16.3281 407.039 17.8047 403.289 20.7578C399.586 23.6641 397.734 27.7188 397.734 32.9219C397.734 37.0938 399.492 40.6328 403.008 43.5391C406.57 46.3984 412.594 49.0234 421.078 51.4141C429.609 53.8047 436.266 56.4531 441.047 59.3594C445.875 62.2188 449.438 65.5703 451.734 69.4141C454.078 73.2578 455.25 77.7812 455.25 82.9844C455.25 91.2812 452.016 97.9375 445.547 102.953C439.078 107.922 430.43 110.406 419.602 110.406C412.57 110.406 406.008 109.07 399.914 106.398C393.82 103.68 389.109 99.9766 385.781 95.2891C382.5 90.6016 380.859 85.2812 380.859 79.3281H394.43C394.43 85.5156 396.703 90.4141 401.25 94.0234C405.844 97.5859 411.961 99.3672 419.602 99.3672C426.727 99.3672 432.188 97.9141 435.984 95.0078C439.781 92.1016 441.68 88.1406 441.68 83.125C441.68 78.1094 439.922 74.2422 436.406 71.5234C432.891 68.7578 426.516 66.0391 417.281 63.3672Z" mask="url(#path-1-outside-1)"/><path stroke="#fff" stroke-width="10" d="M494.695 76.7266L496.664 90.2266L499.547 78.0625L519.797 6.625H531.188L550.945 78.0625L553.758 90.4375L555.938 76.6562L571.828 6.625H585.398L560.578 109H548.273L527.18 34.3984L525.562 26.5938L523.945 34.3984L502.078 109H489.773L465.023 6.625H478.523L494.695 76.7266Z" mask="url(#path-1-outside-1)"/><path stroke="#fff" stroke-width="10" d="M679.195 61.1172C679.195 71.1484 677.508 79.9141 674.133 87.4141C670.758 94.8672 665.977 100.562 659.789 104.5C653.602 108.438 646.383 110.406 638.133 110.406C630.07 110.406 622.922 108.438 616.688 104.5C610.453 100.516 605.602 94.8672 602.133 87.5547C598.711 80.1953 596.953 71.6875 596.859 62.0312V54.6484C596.859 44.8047 598.57 36.1094 601.992 28.5625C605.414 21.0156 610.242 15.25 616.477 11.2656C622.758 7.23438 629.93 5.21875 637.992 5.21875C646.195 5.21875 653.414 7.21094 659.648 11.1953C665.93 15.1328 670.758 20.875 674.133 28.4219C677.508 35.9219 679.195 44.6641 679.195 54.6484V61.1172ZM665.766 54.5078C665.766 42.3672 663.328 33.0625 658.453 26.5938C653.578 20.0781 646.758 16.8203 637.992 16.8203C629.461 16.8203 622.734 20.0781 617.812 26.5938C612.938 33.0625 610.43 42.0625 610.289 53.5938V61.1172C610.289 72.8828 612.75 82.1406 617.672 88.8906C622.641 95.5938 629.461 98.9453 638.133 98.9453C646.852 98.9453 653.602 95.7812 658.383 89.4531C663.164 83.0781 665.625 73.9609 665.766 62.1016V54.5078Z" mask="url(#path-1-outside-1)"/><path stroke="#fff" stroke-width="10" d="M736.992 67.5859H712.945V109H699.375V6.625H733.266C744.797 6.625 753.656 9.25 759.844 14.5C766.078 19.75 769.195 27.3906 769.195 37.4219C769.195 43.7969 767.461 49.3516 763.992 54.0859C760.57 58.8203 755.789 62.3594 749.648 64.7031L773.695 108.156V109H759.211L736.992 67.5859ZM712.945 56.5469H733.688C740.391 56.5469 745.711 54.8125 749.648 51.3438C753.633 47.875 755.625 43.2344 755.625 37.4219C755.625 31.0938 753.727 26.2422 749.93 22.8672C746.18 19.4922 740.742 17.7812 733.617 17.7344H712.945V56.5469Z" mask="url(#path-1-outside-1)"/><path stroke="#fff" stroke-width="10" d="M801.75 97.9609H850.266V109H788.18V6.625H801.75V97.9609Z" mask="url(#path-1-outside-1)"/><path stroke="#fff" stroke-width="10" d="M865.664 109V6.625H894.562C903.469 6.625 911.344 8.59375 918.188 12.5312C925.031 16.4688 930.305 22.0703 934.008 29.3359C937.758 36.6016 939.656 44.9453 939.703 54.3672V60.9062C939.703 70.5625 937.828 79.0234 934.078 86.2891C930.375 93.5547 925.055 99.1328 918.117 103.023C911.227 106.914 903.188 108.906 894 109H865.664ZM879.164 17.7344V97.9609H893.367C903.773 97.9609 911.859 94.7266 917.625 88.2578C923.438 81.7891 926.344 72.5781 926.344 60.625V54.6484C926.344 43.0234 923.602 34 918.117 27.5781C912.68 21.1094 904.945 17.8281 894.914 17.7344H879.164Z" mask="url(#path-1-outside-1)"/></svg>